# File created by Blade
# Date/Time:  Wed Jan 21 19:14:05 2015
#---------------------------------------------------------
:version 1.10
:name HOM
:units
  mass 1.0
  length 1.000000
  angle deg
:documentation
     Acclaim Skeleton File
:root
   axis xyz
   order TX TY TZ RX RY RZ
   position 0.000000 0.000000 0.000000
   orientation 0 0 0
:bonedata
   begin
      id 1
      name RightUpLeg_dum
      direction -1.000000 0.000000 0.000000
      length 3.693983
      axis 0.0 0.0 0.0 xyz
   end
   begin
      id 2
      name LeftUpLeg_dum
      direction 1.000000 0.000000 0.000000
      length 3.693983
      axis 0.0 0.0 0.0 xyz
   end
   begin
      id 3
      name Spine_dum
      direction 0.000000 1.000000 0.000000
      length 2.392956
      axis 0.0 0.0 0.0 xyz
   end
   begin
      id 4
      name RightUpLeg
      direction 0.000000 -1.000000 0.000000
      length 15.795667
      axis 0.0 0.0 0.0 xyz
      dof rx ry rz
   end
   begin
      id 5
      name RightLeg
      direction 0.000000 -1.000000 0.000000
      length 14.766989
      axis 0.0 0.0 0.0 xyz
      dof rx ry rz
   end
   begin
      id 6
      name RightFoot
      direction 0.000000 -0.258819 0.965926
      length 4.962790
      axis 15.0 0.0 0.0 xyz
      dof rx ry rz
   end
   begin
      id 7
      name RightToeBase
      direction 0.000000 0.000000 1.000000
      length 2.952750
      axis 0.0 0.0 0.0 xyz
      dof rx ry rz
   end
   begin
      id 8
      name LeftUpLeg
      direction 0.000000 -1.000000 0.000000
      length 15.795667
      axis 0.0 0.0 0.0 xyz
      dof rx ry rz
   end
   begin
      id 9
      name LeftLeg
      direction 0.000000 -1.000000 0.000000
      length 14.766989
      axis 0.0 0.0 0.0 xyz
      dof rx ry rz
   end
   begin
      id 10
      name LeftFoot
      direction 0.000000 -0.258819 0.965926
      length 4.962790
      axis 15.0 0.0 0.0 xyz
      dof rx ry rz
   end
   begin
      id 11
      name LeftToeBase
      direction 0.000000 0.000000 1.000000
      length 2.952750
      axis 0.0 0.0 0.0 xyz
      dof rx ry rz
   end
   begin
      id 12
      name Spine
      direction 0.000000 1.000000 0.000000
      length 0.000000
      axis 0.0 0.0 0.0 xyz
      dof rx ry rz
   end
   begin
      id 13
      name Spine_dum1
      direction 0.000000 1.000000 0.000000
      length 13.207411
      axis 0.0 0.0 0.0 xyz
   end
   begin
      id 14
      name Spine_dum2
      direction 0.000000 1.000000 0.000000
      length 13.207411
      axis 0.0 0.0 0.0 xyz
   end
   begin
      id 15
      name Spine_dum3
      direction 0.000000 1.000000 0.000000
      length 19.250100
      axis 0.0 0.0 0.0 xyz
   end
   begin
      id 16
      name RightShoulder
      direction -1.000000 0.000000 0.000000
      length 8.140465
      axis 0.0 0.0 90.0 xyz
      dof rx ry rz
   end
   begin
      id 17
      name RightArm
      direction -1.000000 0.000000 0.000000
      length 10.649840
      axis 0.0 0.0 90.0 xyz
      dof rx ry rz
   end
   begin
      id 18
      name RightForeArm
      direction -1.000000 0.000000 0.000000
      length 8.304624
      axis 0.0 0.0 90.0 xyz
      dof ry rz rx
   end
   begin
      id 19
      name RightHand
      direction -1.000000 0.000000 0.000000
      length 0.000000
      axis 0.0 0.0 90.0 xyz
      dof rx ry rz
   end
   begin
      id 20
      name RightHand_dum1
      direction -1.000000 0.000000 0.000000
      length 3.937000
      axis 0.0 0.0 90.0 xyz
   end
   begin
      id 21
      name RightHand_dum2
      direction 0.000000 0.000000 0.000000
      length 0.000000
      axis 0.0 0.0 90.0 xyz
   end
   begin
      id 22
      name RightHandThumb1
      direction 0.000000 0.000000 1.000000
      length 3.937000
      axis 0.0 0.0 90.0 xyz
      dof rx rz ry
   end
   begin
      id 23
      name LeftShoulder
      direction 1.000000 0.000000 0.000000
      length 8.140465
      axis 0.0 0.0 -90.0 xyz
      dof rx ry rz
   end
   begin
      id 24
      name LeftArm
      direction 1.000000 0.000000 0.000000
      length 10.649840
      axis 0.0 0.0 -90.0 xyz
      dof rx ry rz
   end
   begin
      id 25
      name LeftForeArm
      direction 1.000000 0.000000 0.000000
      length 8.304624
      axis 0.0 0.0 -90.0 xyz
      dof ry rz rx
   end
   begin
      id 26
      name LeftHand
      direction 1.000000 0.000000 0.000000
      length 0.000000
      axis 0.0 0.0 -90.0 xyz
      dof rx ry rz
   end
   begin
      id 27
      name LeftHand_dum1
      direction 1.000000 0.000000 0.000000
      length 3.937000
      axis 0.0 0.0 -90.0 xyz
   end
   begin
      id 28
      name LeftHand_dum2
      direction 0.000000 0.000000 0.000000
      length 0.000000
      axis 0.0 0.0 -90.0 xyz
   end
   begin
      id 29
      name LeftHandThumb1
      direction 0.000000 0.000000 1.000000
      length 3.937000
      axis 0.0 0.0 -90.0 xyz
      dof rx rz ry
   end
   begin
      id 30
      name Head
      direction 0.000000 1.000000 0.000000
      length 4.527550
      axis 0.0 0.0 0.0 xyz
      dof rx ry rz
   end
:hierarchy
   begin
      root RightUpLeg_dum LeftUpLeg_dum Spine_dum
      RightUpLeg_dum RightUpLeg
      LeftUpLeg_dum LeftUpLeg
      Spine_dum Spine
      RightUpLeg RightLeg
      RightLeg RightFoot
      RightFoot RightToeBase
      LeftUpLeg LeftLeg
      LeftLeg LeftFoot
      LeftFoot LeftToeBase
      Spine Spine_dum1 Spine_dum2 Spine_dum3
      Spine_dum1 RightShoulder
      Spine_dum2 LeftShoulder
      Spine_dum3 Head
      RightShoulder RightArm
      RightArm RightForeArm
      RightForeArm RightHand
      RightHand RightHand_dum1 RightHand_dum2
      RightHand_dum2 RightHandThumb1
      LeftShoulder LeftArm
      LeftArm LeftForeArm
      LeftForeArm LeftHand
      LeftHand LeftHand_dum1 LeftHand_dum2
      LeftHand_dum2 LeftHandThumb1
   end

# File created by Blade
# Date/Time:  Wed Jan 21 19:13:57 2015
# Frame Rate: 120.000 fps
#------------------------------------------------------
:FULLY-SPECIFIED
:DEGREES
254
root -3.858700 33.853628 -3.389212 15.723750 71.578162 -71.386546
RightUpLeg -15.135873 -5.109918 -27.288196
RightLeg 112.467770 -0.000000 -0.000000
RightFoot 39.546627 -6.003050 7.989983
RightToeBase 47.573157 -0.000000 -0.000000
LeftUpLeg -83.852847 14.801944 5.326402
LeftLeg 2.022869 -0.000000 -0.000000
LeftFoot -6.620243 -7.262190 2.720819
LeftToeBase 6.717832 -0.000000 -0.000000
Spine -59.032159 -4.365539 16.627764
RightShoulder -29.117931 -3.573634 -25.681961
RightArm -19.989885 -31.743339 75.672183
RightForeArm 16.686298 0.000000 -5.180654
RightHand -0.516568 -0.000000 31.269633
RightHandThumb1 -24.326973 -0.000000 -32.862282
LeftShoulder -12.134573 0.122045 43.912080
LeftArm 32.517591 -16.550021 -36.817264
LeftForeArm 16.360469 -0.000000 11.577679
LeftHand -16.184403 -0.000000 3.477311
LeftHandThumb1 -26.253704 0.000000 33.147579
Head -20.919235 16.875457 24.037007
255
root -3.852917 33.856350 -3.368537 16.044575 71.493872 -71.229297
RightUpLeg -14.789805 -4.743526 -27.460679
RightLeg 111.835521 -0.000000 -0.000000
RightFoot 39.455043 -6.550568 8.120067
RightToeBase 47.631865 -0.000000 -0.000000
LeftUpLeg -83.935682 14.912295 5.251033
LeftLeg 1.919409 -0.000000 -0.000000
LeftFoot -6.591676 -7.223587 2.778411
LeftToeBase 6.598393 -0.000000 -0.000000
Spine -59.128216 -4.380001 16.444437
RightShoulder -29.219532 -3.589449 -25.839983
RightArm -19.848384 -32.057042 75.416769
RightForeArm 16.259576 0.000000 -5.007526
RightHand -0.400605 -0.000000 30.791697
RightHandThumb1 -24.326973 -0.000000 -32.862282
LeftShoulder -12.203622 -0.036792 43.982087
LeftArm 32.662739 -16.443193 -36.546576
LeftForeArm 16.423367 0.000000 11.076908
LeftHand -15.920829 0.000000 3.081979
LeftHandThumb1 -26.253704 0.000000 33.147579
Head -20.979425 16.888734 24.111835
256
root -3.848266 33.857428 -3.345718 16.321986 71.379765 -71.139519
RightUpLeg -14.463632 -4.409080 -27.635324
RightLeg 111.178715 -0.000000 -0.000000
RightFoot 39.336661 -7.256877 8.382638
RightToeBase 47.601499 -0.000000 -0.000000
LeftUpLeg -84.036824 15.047794 5.251843
LeftLeg 1.855195 -0.000000 -0.000000
LeftFoot -6.627160 -7.081752 2.848189
LeftToeBase 6.558318 -0.000000 -0.000000
Spine -59.261219 -4.395857 16.344291
RightShoulder -29.185825 -3.501512 -26.069534
RightArm -19.827921 -32.098479 75.161490
RightForeArm 15.473791 -0.000000 -4.823506
RightHand 0.045045 0.000000 30.266343
RightHandThumb1 -24.326973 -0.000000 -32.862282
LeftShoulder -12.286188 -0.184708 44.047950
LeftArm 32.762976 -16.319603 -36.226953
LeftForeArm 16.303921 0.000000 10.602913
LeftHand -16.046523 -0.000000 2.947013
LeftHandThumb1 -26.253704 0.000000 33.147579
Head -20.942183 16.953581 24.199559
257
root -3.848617 33.860561 -3.326376 16.568598 71.253739 -71.069769
RightUpLeg -14.139038 -4.087647 -27.834588
RightLeg 110.526325 -0.000000 -0.000000
RightFoot 39.261047 -7.731603 8.534054
RightToeBase 47.270965 -0.000000 -0.000000
LeftUpLeg -84.146040 15.181326 5.325102
LeftLeg 1.850145 -0.000000 -0.000000
LeftFoot -6.661906 -6.853259 2.949732
LeftToeBase 6.433094 -0.000000 -0.000000
Spine -59.332795 -4.399392 16.231990
RightShoulder -29.215924 -3.447350 -26.191782
RightArm -19.593714 -31.849718 74.647843
RightForeArm 14.243565 0.000000 -4.629318
RightHand 0.171208 -0.000000 29.616793
RightHandThumb1 -24.326973 -0.000000 -32.862282
LeftShoulder -12.395381 -0.352645 44.135542
LeftArm 32.820482 -16.304990 -35.942381
LeftForeArm 16.368343 0.000000 10.211248
LeftHand -15.971167 -0.000000 2.823690
LeftHandThumb1 -26.253704 0.000000 33.147579
Head -21.026371 17.086351 24.265803
258
root -3.849439 33.864565 -3.306331 16.902748 71.122387 -70.970241
RightUpLeg -13.856347 -3.819358 -28.046324
RightLeg 109.859113 -0.000000 -0.000000
RightFoot 39.111358 -8.119436 8.729956
RightToeBase 47.004659 -0.000000 -0.000000
LeftUpLeg -84.308465 15.319291 5.436725
LeftLeg 1.881409 -0.000000 -0.000000
LeftFoot -6.714215 -6.548017 3.058352
LeftToeBase 6.291011 -0.000000 -0.000000
Spine -59.474356 -4.391786 16.114659
RightShoulder -29.220169 -3.383852 -26.309060
RightArm -19.520638 -32.029338 74.353004
RightForeArm 13.457837 -0.000000 -4.384565
RightHand 0.175907 -0.000000 29.199683
RightHandThumb1 -24.326973 -0.000000 -32.862282
LeftShoulder -12.501117 -0.487294 44.222575
LeftArm 32.904096 -16.393377 -35.669488
LeftForeArm 16.671296 -0.000000 9.844521
LeftHand -16.111770 -0.000000 2.780956
LeftHandThumb1 -26.253704 0.000000 33.147579
Head -21.074259 17.198756 24.367946
259
root -3.852772 33.870928 -3.284505 17.177349 70.974012 -70.954734
RightUpLeg -13.604729 -3.583112 -28.246937
RightLeg 109.217412 -0.000000 -0.000000
RightFoot 38.937776 -8.563482 9.007316
RightToeBase 46.718106 -0.000000 -0.000000
LeftUpLeg -84.505207 15.484246 5.577745
LeftLeg 1.934636 -0.000000 -0.000000
LeftFoot -6.764225 -6.235135 3.162835
LeftToeBase 6.197027 -0.000000 -0.000000
Spine -59.619619 -4.370110 16.028924
RightShoulder -29.217068 -3.332216 -26.383558
RightArm -19.465443 -32.337815 74.113944
RightForeArm 12.801540 0.000000 -4.164838
RightHand 0.234494 -0.000000 28.768881
RightHandThumb1 -24.326973 -0.000000 -32.862282
LeftShoulder -12.631017 -0.600806 44.350560
LeftArm 32.967269 -16.475284 -35.418977
LeftForeArm 16.689574 -0.000000 9.566497
LeftHand -16.172436 -0.000000 2.819186
LeftHandThumb1 -26.253704 0.000000 33.147579
Head -21.122217 17.359930 24.477313
